<svg id="Layer_1" data-name="Layer 1" xmlns="http://www.w3.org/2000/svg" viewBox="0 0 104.5444 25.6614"><defs><style>.cls-1{fill:#29b5e8;}</style></defs><title>Snowflake-blue</title><polygon class="cls-1" points="69.817 8.995 69.905 8.995 69.817 8.902 69.817 8.995"/><polygon class="cls-1" points="69.817 7.867 69.817 7.959 69.905 7.867 69.817 7.867"/><polygon class="cls-1" points="60.883 12.018 60.881 12.023 60.85 12.101 60.897 12.22 60.946 12.101 60.912 12.018 60.883 12.018"/><polygon class="cls-1" points="70.787 8.995 70.875 8.995 70.875 8.902 70.787 8.995"/><polygon class="cls-1" points="70.787 7.867 70.875 7.959 70.875 7.867 70.787 7.867"/><polygon class="cls-1" points="58.342 15.726 58.375 15.819 58.401 15.82 58.425 15.76 58.437 15.729 58.392 15.602 58.342 15.726"/><polygon class="cls-1" points="63.377 15.728 63.414 15.82 63.439 15.819 63.445 15.803 63.472 15.726 63.421 15.601 63.377 15.728"/><polygon class="cls-1" points="91.462 12.355 91.521 12.297 91.468 12.231 91.462 12.355"/><polygon class="cls-1" points="88.969 14.941 88.995 14.914 88.995 14.875 88.969 14.941"/><polygon class="cls-1" points="90.692 13.023 90.69 13.025 90.747 13.096 90.81 13.03 90.809 13.029 90.805 13.024 90.696 13.019 90.692 13.023"/><polygon class="cls-1" points="88.906 13.425 88.906 13.515 88.933 13.527 88.985 13.474 88.995 13.464 88.995 13.335 88.906 13.425"/><polygon class="cls-1" points="69.817 8.902 69.905 8.995 69.905 8.902 69.817 8.902"/><polygon class="cls-1" points="63.414 15.82 63.428 15.853 63.439 15.819 63.414 15.82"/><polygon class="cls-1" points="58.387 15.853 58.401 15.82 58.375 15.819 58.387 15.853"/><polygon class="cls-1" points="70.787 7.959 70.875 7.959 70.787 7.867 70.787 7.959"/><path class="cls-1" d="M98.42,15.192l.004-.004h-.001Zm.004-.004.108.005-.051-.0639Z" transform="translate(-7.7278 -2.1693)"/><polygon class="cls-1" points="88.906 13.553 88.933 13.526 88.906 13.514 88.906 13.553"/><polygon class="cls-1" points="70.787 8.902 70.787 8.995 70.875 8.902 70.787 8.902"/><polygon class="cls-1" points="69.817 7.959 69.905 7.959 69.905 7.867 69.817 7.959"/><path class="cls-1" d="M96.6613,15.6956l.052-.0529Z" transform="translate(-7.7278 -2.1693)"/><path class="cls-1" d="M71.1724,17.9717l.028-.077Z" transform="translate(-7.7278 -2.1693)"/><path class="cls-1" d="M104.4762,14.1534l.004-.018h.001a3.563,3.563,0,0,1,3.433-2.955,3.5274,3.5274,0,0,1,3.38,2.955h.001l.003.017-.001.001.015.074h-6.85c.004-.024.01-.048.015-.073Zm-.065,1.062.001-.001-.006-.086h7.423a.425.425,0,0,0,.443-.422v-.057a4.3823,4.3823,0,1,0-8.752.326,4.5477,4.5477,0,0,0,4.362,4.676h.43a4.49,4.49,0,0,0,3.656-2.334.5.5,0,0,0-.148-.651.4218.4218,0,0,0-.591.153,3.5887,3.5887,0,0,1-2.917,1.912h-.427a3.6194,3.6194,0,0,1-3.473-3.511h-.001v-.005" transform="translate(-7.7278 -2.1693)"/><path class="cls-1" d="M78.23,6.9442a3.2372,3.2372,0,0,0-.596,2.1821v1.002H76.44a.443.443,0,0,0-.454.442.4879.4879,0,0,0,.454.501h1.194v8.138a.441.441,0,1,0,.88,0v-8.138h1.278a.48.48,0,0,0,.455-.501.4361.4361,0,0,0-.455-.442h-1.278V9.1263a2.54,2.54,0,0,1,.369-1.563,1.389,1.389,0,0,1,1.137-.354.3153.3153,0,0,0,.053-.004.4032.4032,0,0,0,.06.004h.143a.4718.4718,0,0,0,0-.943h-.143a.5441.5441,0,0,0-.057.003.5115.5115,0,0,0-.056-.003,2.2366,2.2366,0,0,0-1.79.6779" transform="translate(-7.7278 -2.1693)"/><path class="cls-1" d="M39.1914,14.2854c-1.066-.37-2.216-.649-2.216-1.552,0-1.146,1.348-1.617,2.087-1.617,1.786,0,2.17,1.474,2.67,1.018s-1.267-1.873-2.541-1.873a3.7914,3.7914,0,0,0-2.216.602,2.0776,2.0776,0,0,0-.978,1.87c-.053,1.92,2.218,2.245,3.194,2.584s2.109.737,2.119,1.689c.013,1.318-1.551,1.725-2.253,1.725-2.001,0-2.54-1.174-2.918-.805s.109.83,1.031,1.282a4.8282,4.8282,0,0,0,1.887.443,3.5624,3.5624,0,0,0,2.253-.689,2.4644,2.4644,0,0,0,.977-1.956c0-1.763-1.524-2.176-3.096-2.721" transform="translate(-7.7278 -2.1693)"/><path class="cls-1" d="M89.4058,18.7317a3.6073,3.6073,0,0,1-3.398-3.776,3.4182,3.4182,0,1,1,6.795,0,3.5947,3.5947,0,0,1-3.397,3.776m3.397-6.6311c-.016-.0229-.033-.0459-.049-.069-.011-.0139-.021-.0289-.032-.043a4.1481,4.1481,0,0,0-3.316-1.7279,4.5089,4.5089,0,0,0-4.284,4.695,4.5089,4.5089,0,0,0,4.284,4.695,4.1644,4.1644,0,0,0,3.316-1.7461l.033-.045.048-.067v1.398a.4433.4433,0,1,0,.886,0v-8.47a.4433.4433,0,1,0-.886,0v1.38Z" transform="translate(-7.7278 -2.1693)"/><path class="cls-1" d="M96.6615,15.6955l-.027.027V6.6965a.4521.4521,0,1,0-.904,0v12.495a.4521.4521,0,1,0,.904,0v-2.147l1.784-1.851.001-.001.062-.064.051.065.005.005V15.2l3.415,4.279a.3792.3792,0,0,0,.351.173.4561.4561,0,0,0,.295-.096.4942.4942,0,0,0,.037-.671l-3.508-4.427,3.489-3.504a.4511.4511,0,0,0,0-.651.4133.4133,0,0,0-.627,0l-5.276,5.34Z" transform="translate(-7.7278 -2.1693)"/><path class="cls-1" d="M82.9234,6.2367a.4581.4581,0,0,0-.443.46v12.494a.4526.4526,0,1,0,.905,0V6.6967a.4624.4624,0,0,0-.462-.46" transform="translate(-7.7278 -2.1693)"/><path class="cls-1" d="M71.1728,17.9718l-.006.0161-.012.034-.013-.033-.037-.092-2.036-5.03a.4932.4932,0,0,0-.443-.287.4879.4879,0,0,0-.425.287l-2.036,5.031-.013.0319-.024.0591-.013.033-.012-.034-.033-.093-2.595-7.329a.43.43,0,0,0-.573-.249.4736.4736,0,0,0-.221.594l3.028,8.453a.3458.3458,0,0,0,.184.211.0965.0965,0,0,0,.074.038.525.525,0,0,0,.166.0379.4366.4366,0,0,0,.388-.2869.072.072,0,0,1,.018-.039l2.07-5.133.002-.005.015-.0361,2.105,5.1941a.4647.4647,0,0,0,.369.3059h.055a.39.39,0,0,0,.259-.096.5169.5169,0,0,0,.166-.23l3.01-8.414a.4653.4653,0,0,0-.241-.594.4419.4419,0,0,0-.572.249L71.2,17.8949Z" transform="translate(-7.7278 -2.1693)"/><path class="cls-1" d="M44.9852,10.74a.4347.4347,0,1,0-.868,0v8.5661a.0659.0659,0,0,1,.019.0379.0737.0737,0,0,0,.018.0581.4874.4874,0,0,0,.296.2489h.11a.39.39,0,0,0,.333-.172.4369.4369,0,0,0,.092-.211V14.094a2.8919,2.8919,0,0,1,2.806-2.894,2.84,2.84,0,0,1,2.788,2.894v5.0971a.4438.4438,0,1,0,.887,0V14.094a3.7566,3.7566,0,0,0-3.675-3.8139,3.6156,3.6156,0,0,0-2.806,1.3609V10.74Z" transform="translate(-7.7278 -2.1693)"/><path class="cls-1" d="M57.3785,18.731a3.6184,3.6184,0,0,1-3.397-3.775,3.4178,3.4178,0,1,1,6.794,0,3.6184,3.6184,0,0,1-3.397,3.775m0-8.47a4.5338,4.5338,0,0,0-4.284,4.695,4.302,4.302,0,1,0,8.568,0,4.521,4.521,0,0,0-4.284-4.695" transform="translate(-7.7278 -2.1693)"/><path class="cls-1" d="M11.1925,8.3033l5.216,3.127a1.491,1.491,0,0,0,1.84-.241,1.6086,1.6086,0,0,0,.492-1.166V3.7553a1.5276,1.5276,0,1,0-3.053,0v3.567l-2.962-1.776a1.5024,1.5024,0,0,0-2.094.583,1.6257,1.6257,0,0,0,.561,2.174" transform="translate(-7.7278 -2.1693)"/><path class="cls-1" d="M23.7309,11.4308l5.216-3.127a1.6257,1.6257,0,0,0,.561-2.175,1.502,1.502,0,0,0-2.093-.582l-2.923,1.752V3.7548a1.5276,1.5276,0,1,0-3.053,0v6.144a1.635,1.635,0,0,0,.198.949,1.5024,1.5024,0,0,0,2.094.583" transform="translate(-7.7278 -2.1693)"/><path class="cls-1" d="M19.0882,14.9878a.4549.4549,0,0,1,.109-.273l.61-.6341a.4244.4244,0,0,1,.264-.113h.023a.4217.4217,0,0,1,.263.113l.61.6341a.4488.4488,0,0,1,.109.273v.0239a.4557.4557,0,0,1-.109.274l-.61.633a.417.417,0,0,1-.263.114h-.023a.42.42,0,0,1-.264-.114l-.61-.633a.4557.4557,0,0,1-.109-.274Zm-1.846-.2611v.5471a.62.62,0,0,0,.149.373l2.069,2.148a.5686.5686,0,0,0,.359.1549h.526a.57.57,0,0,0,.359-.1549l2.069-2.148a.6164.6164,0,0,0,.149-.373v-.5471a.6178.6178,0,0,0-.149-.373l-2.069-2.148a.5686.5686,0,0,0-.359-.1549h-.526a.5686.5686,0,0,0-.359.1549l-2.069,2.148a.6225.6225,0,0,0-.149.373" transform="translate(-7.7278 -2.1693)"/><path class="cls-1" d="M8.4943,13.2436l2.953,1.7711-2.953,1.77a1.6267,1.6267,0,0,0-.561,2.175,1.5018,1.5018,0,0,0,2.094.5821l5.216-3.1271a1.6623,1.6623,0,0,0,0-2.8l-5.216-3.128a1.5023,1.5023,0,0,0-2.094.583,1.6255,1.6255,0,0,0,.561,2.1739" transform="translate(-7.7278 -2.1693)"/><path class="cls-1" d="M24.13,15.0207a1.6048,1.6048,0,0,0,.766,1.394l5.217,3.127a1.501,1.501,0,0,0,2.093-.582,1.6257,1.6257,0,0,0-.561-2.175l-2.953-1.77,2.953-1.771a1.6247,1.6247,0,0,0,.561-2.174,1.5015,1.5015,0,0,0-2.093-.583l-5.217,3.128a1.6048,1.6048,0,0,0-.766,1.406" transform="translate(-7.7278 -2.1693)"/><path class="cls-1" d="M17.4552,18.4117a1.483,1.483,0,0,0-1.047.186l-5.216,3.128a1.6255,1.6255,0,0,0-.561,2.174,1.5021,1.5021,0,0,0,2.094.582l2.962-1.776v3.54a1.5276,1.5276,0,1,0,3.053,0V19.9767a1.5676,1.5676,0,0,0-1.285-1.565" transform="translate(-7.7278 -2.1693)"/><path class="cls-1" d="M28.947,21.7256l-5.216-3.127a1.5021,1.5021,0,0,0-2.094.582,1.6382,1.6382,0,0,0-.198.95v6.115a1.5276,1.5276,0,1,0,3.053,0v-3.515l2.922,1.752a1.5024,1.5024,0,0,0,2.094-.583,1.6257,1.6257,0,0,0-.561-2.174" transform="translate(-7.7278 -2.1693)"/></svg>